<svg width="195" height="49" viewBox="0 0 195 49" fill="none" xmlns="http://www.w3.org/2000/svg">
<g clip-path="url(#clip0_182_24367)">
<g clip-path="url(#clip1_182_24367)">
<g clip-path="url(#clip2_182_24367)">
<path d="M0.987028 29.2143C-1.78841 22.6168 1.49095 15.058 8.30551 12.3291L39.1609 0.00244141C41.9364 6.59993 38.6493 14.1587 31.8347 16.8877L13.3292 24.2837C6.51465 27.0048 3.23529 34.5636 6.01073 41.1611L0.987028 29.2143Z" fill="#00AFF0"/>
<path d="M39.1609 0.0102539C41.9363 6.60774 38.6492 14.1665 31.8347 16.8955L13.3291 24.2837C7.2821 26.6948 4.01824 32.9279 5.29742 38.9129C-6.33927 11.2205 30.0516 21.0276 39.1609 0.0102539Z" fill="#008CCF"/>
<path d="M10.6004 40.1685C8.72429 35.7108 10.9415 30.6096 15.5466 28.7722L36.3857 20.4536C38.254 24.9114 36.0445 30.0126 31.4395 31.85L18.9345 36.8349C14.3372 38.6723 12.1199 43.7735 13.9883 48.2313L10.6004 40.1685Z" fill="#00AFF0"/>
<path d="M36.378 20.4458C38.2463 24.9036 36.0368 30.0048 31.4318 31.8422L18.9346 36.8349C14.8489 38.4629 12.6472 42.6726 13.5155 46.7117C5.64656 28.0201 30.2224 34.6331 36.378 20.4458Z" fill="#008CCF"/>
</g>
</g>
</g>
<path d="M49.9134 34.1172V14.239H63.0749V17.7041H54.1161V22.4407H62.2014V25.9058H54.1161V34.1172H49.9134ZM69.342 34.3987C68.3908 34.3987 67.5431 34.2337 66.799 33.9037C66.0548 33.5672 65.466 33.0722 65.0325 32.4186C64.6054 31.7586 64.3919 30.9368 64.3919 29.9532C64.3919 29.125 64.5439 28.4294 64.848 27.8664C65.1522 27.3035 65.5663 26.8505 66.0904 26.5076C66.6146 26.1646 67.2099 25.9058 67.8764 25.7311C68.5493 25.5564 69.2546 25.4334 69.9923 25.3622C70.8594 25.2716 71.5582 25.1875 72.0888 25.1099C72.6194 25.0257 73.0045 24.9028 73.2439 24.741C73.4833 24.5793 73.603 24.3398 73.603 24.0228V23.9645C73.603 23.3498 73.4089 22.8742 73.0206 22.5377C72.6389 22.2013 72.0953 22.033 71.39 22.033C70.6459 22.033 70.0538 22.198 69.6138 22.528C69.1738 22.8516 68.8826 23.2592 68.7402 23.751L64.916 23.4404C65.1101 22.5345 65.4919 21.7515 66.0613 21.0915C66.6307 20.425 67.3652 19.9138 68.2646 19.5579C69.1705 19.1956 70.2188 19.0144 71.4094 19.0144C72.2377 19.0144 73.0303 19.1115 73.7874 19.3056C74.551 19.4997 75.2272 19.8006 75.816 20.2083C76.4113 20.6159 76.8805 21.14 77.2234 21.7807C77.5664 22.4148 77.7378 23.1751 77.7378 24.0616V34.1172H73.8165V32.0498H73.7001C73.4606 32.5157 73.1403 32.9266 72.7392 33.2825C72.338 33.6319 71.8559 33.9069 71.2929 34.1075C70.73 34.3016 70.0797 34.3987 69.342 34.3987ZM70.5262 31.5451C71.1344 31.5451 71.6715 31.4253 72.1374 31.1859C72.6033 30.94 72.9689 30.61 73.2342 30.1959C73.4995 29.7818 73.6321 29.3126 73.6321 28.7885V27.2064C73.5027 27.2905 73.3248 27.3682 73.0983 27.4393C72.8783 27.5041 72.6292 27.5655 72.3509 27.6238C72.0727 27.6755 71.7944 27.7241 71.5162 27.7694C71.2379 27.8082 70.9856 27.8438 70.7591 27.8761C70.2738 27.9473 69.85 28.0605 69.4876 28.2158C69.1252 28.3711 68.8437 28.5814 68.6432 28.8467C68.4426 29.1056 68.3423 29.4291 68.3423 29.8174C68.3423 30.3803 68.5461 30.8106 68.9538 31.1083C69.3679 31.3995 69.892 31.5451 70.5262 31.5451ZM84.5339 25.4981V34.1172H80.3991V19.2085H84.3398V21.8389H84.5145C84.8445 20.9718 85.3977 20.2859 86.1742 19.7812C86.9507 19.27 87.8922 19.0144 88.9987 19.0144C90.0341 19.0144 90.9367 19.2409 91.7067 19.6938C92.4768 20.1468 93.0753 20.7939 93.5024 21.6351C93.9295 22.4698 94.143 23.4663 94.143 24.6246V34.1172H90.0082V25.3622C90.0146 24.4498 89.7817 23.7381 89.3093 23.2269C88.837 22.7092 88.1866 22.4504 87.3584 22.4504C86.8019 22.4504 86.3101 22.5701 85.883 22.8095C85.4624 23.0489 85.1324 23.3983 84.893 23.8578C84.6601 24.3107 84.5404 24.8575 84.5339 25.4981ZM109.26 23.4598L105.474 23.6928C105.41 23.3692 105.27 23.078 105.057 22.8192C104.843 22.5539 104.562 22.3436 104.212 22.1883C103.87 22.0265 103.459 21.9457 102.98 21.9457C102.339 21.9457 101.799 22.0815 101.359 22.3533C100.919 22.6186 100.699 22.9745 100.699 23.421C100.699 23.7769 100.841 24.0778 101.126 24.3237C101.411 24.5696 101.899 24.7669 102.592 24.9157L105.29 25.4593C106.739 25.7569 107.82 26.2358 108.532 26.8958C109.243 27.5558 109.599 28.4229 109.599 29.4971C109.599 30.4741 109.311 31.3315 108.736 32.0692C108.166 32.8069 107.383 33.3828 106.387 33.7969C105.397 34.2045 104.255 34.4084 102.96 34.4084C100.987 34.4084 99.4144 33.9975 98.2432 33.1757C97.0784 32.3474 96.3958 31.2215 96.1952 29.7979L100.262 29.5844C100.385 30.1862 100.683 30.6456 101.155 30.9627C101.627 31.2733 102.232 31.4286 102.97 31.4286C103.695 31.4286 104.277 31.2895 104.717 31.0112C105.164 30.7265 105.39 30.3609 105.397 29.9144C105.39 29.5391 105.232 29.2318 104.921 28.9923C104.61 28.7464 104.132 28.5588 103.484 28.4294L100.903 27.9149C99.4467 27.6238 98.3629 27.119 97.6511 26.4008C96.9458 25.6825 96.5931 24.7669 96.5931 23.6539C96.5931 22.6963 96.852 21.8712 97.3696 21.1789C97.8937 20.4865 98.6282 19.9527 99.5729 19.5774C100.524 19.202 101.637 19.0144 102.912 19.0144C104.795 19.0144 106.277 19.4123 107.357 20.2083C108.444 21.0042 109.078 22.088 109.26 23.4598ZM111.734 14.239H116.917L122.391 27.5946H122.624L128.099 14.239H133.282V34.1172H129.205V21.1789H129.04L123.896 34.0201H121.12L115.976 21.1303H115.811V34.1172H111.734V14.239ZM142.914 34.4084C141.381 34.4084 140.061 34.0978 138.954 33.4766C137.854 32.8489 137.007 31.9624 136.411 30.8171C135.816 29.6653 135.518 28.3032 135.518 26.7308C135.518 25.1972 135.816 23.8513 136.411 22.693C137.007 21.5348 137.845 20.6321 138.925 19.985C140.012 19.3379 141.287 19.0144 142.749 19.0144C143.733 19.0144 144.649 19.1729 145.496 19.49C146.35 19.8006 147.095 20.2697 147.729 20.8974C148.369 21.5251 148.868 22.3145 149.223 23.2657C149.579 24.2104 149.757 25.3169 149.757 26.5852V27.7208H137.168V25.1584H145.865C145.865 24.5631 145.736 24.0357 145.477 23.5763C145.218 23.1169 144.859 22.7577 144.399 22.4989C143.947 22.2336 143.419 22.101 142.817 22.101C142.19 22.101 141.633 22.2465 141.148 22.5377C140.669 22.8224 140.294 23.2075 140.022 23.6928C139.75 24.1716 139.611 24.7054 139.605 25.2943V27.7305C139.605 28.4682 139.741 29.1056 140.012 29.6426C140.291 30.1797 140.682 30.5939 141.187 30.885C141.691 31.1762 142.29 31.3218 142.982 31.3218C143.442 31.3218 143.862 31.2571 144.244 31.1277C144.626 30.9983 144.953 30.8042 145.224 30.5453C145.496 30.2865 145.703 29.9694 145.846 29.5941L149.67 29.8465C149.476 30.7653 149.078 31.5677 148.476 32.2536C147.881 32.933 147.111 33.4636 146.166 33.8454C145.228 34.2207 144.144 34.4084 142.914 34.4084ZM159.839 19.2085V22.3145H150.861V19.2085H159.839ZM152.899 15.6367H157.034V29.5359C157.034 29.9177 157.092 30.2153 157.209 30.4288C157.325 30.6359 157.487 30.7815 157.694 30.8656C157.907 30.9497 158.153 30.9918 158.431 30.9918C158.626 30.9918 158.82 30.9756 159.014 30.9433C159.208 30.9044 159.357 30.8753 159.46 30.8559L160.111 33.9328C159.904 33.9975 159.612 34.0719 159.237 34.156C158.862 34.2466 158.406 34.3016 157.869 34.321C156.872 34.3598 155.998 34.2272 155.248 33.9231C154.504 33.6189 153.925 33.1466 153.51 32.506C153.096 31.8654 152.892 31.0565 152.899 30.0794V15.6367ZM161.986 34.1172V19.2085H165.994V21.8098H166.15C166.421 20.8845 166.878 20.1856 167.518 19.7132C168.159 19.2344 168.896 18.995 169.731 18.995C169.938 18.995 170.162 19.0079 170.401 19.0338C170.64 19.0597 170.851 19.0953 171.032 19.1406V22.8095C170.838 22.7513 170.569 22.6995 170.226 22.6542C169.883 22.6089 169.569 22.5863 169.285 22.5863C168.676 22.5863 168.133 22.7189 167.654 22.9842C167.182 23.243 166.806 23.6054 166.528 24.0713C166.256 24.5372 166.121 25.0743 166.121 25.6825V34.1172H161.986ZM172.623 34.1172V19.2085H176.758V34.1172H172.623ZM174.7 17.2867C174.085 17.2867 173.558 17.0829 173.118 16.6752C172.684 16.2611 172.468 15.7661 172.468 15.1902C172.468 14.6207 172.684 14.1322 173.118 13.7245C173.558 13.3104 174.085 13.1033 174.7 13.1033C175.315 13.1033 175.839 13.3104 176.272 13.7245C176.712 14.1322 176.932 14.6207 176.932 15.1902C176.932 15.7661 176.712 16.2611 176.272 16.6752C175.839 17.0829 175.315 17.2867 174.7 17.2867ZM186.259 34.4084C184.732 34.4084 183.419 34.0848 182.319 33.4378C181.225 32.7842 180.384 31.8783 179.795 30.72C179.213 29.5618 178.922 28.2288 178.922 26.7211C178.922 25.194 179.216 23.8545 179.805 22.7027C180.4 21.5445 181.245 20.6418 182.338 19.9947C183.432 19.3412 184.732 19.0144 186.24 19.0144C187.541 19.0144 188.68 19.2506 189.657 19.7229C190.634 20.1953 191.407 20.8586 191.976 21.7127C192.546 22.5669 192.86 23.5698 192.918 24.7216H189.016C188.906 23.9775 188.615 23.3789 188.142 22.926C187.677 22.4666 187.065 22.2368 186.308 22.2368C185.667 22.2368 185.108 22.4116 184.629 22.761C184.156 23.1039 183.788 23.6054 183.522 24.2654C183.257 24.9255 183.124 25.7246 183.124 26.6629C183.124 27.6141 183.254 28.4229 183.513 29.0894C183.778 29.7559 184.15 30.2638 184.629 30.6133C185.108 30.9627 185.667 31.1374 186.308 31.1374C186.78 31.1374 187.204 31.0403 187.579 30.8462C187.961 30.6521 188.275 30.3706 188.521 30.0018C188.773 29.6265 188.938 29.1768 189.016 28.6526H192.918C192.853 29.7915 192.543 30.7944 191.986 31.6615C191.436 32.5221 190.676 33.1951 189.705 33.6804C188.735 34.1657 187.586 34.4084 186.259 34.4084Z" fill="white"/>
<defs>
<clipPath id="clip0_182_24367">
<rect width="40.1467" height="48.2339" fill="white"/>
</clipPath>
<clipPath id="clip1_182_24367">
<rect width="40.1467" height="48.2339" fill="white"/>
</clipPath>
<clipPath id="clip2_182_24367">
<rect width="40.1467" height="48.2291" fill="white" transform="translate(0 0.00244141)"/>
</clipPath>
</defs>
</svg>
